<svg width="512" height="512" fill="#7389da" xmlns="http://www.w3.org/2000/svg">

 <g>
  <title>background</title>
  <rect fill="none" id="canvas_background" height="602" width="802" y="-1" x="-1"/>
 </g>
 <g>
  <title>Layer 1</title>
  <g stroke="null" id="svg_4">
   <g stroke="null" id="svg_5">
    <path stroke="null" id="svg_6" d="m85.5507,18.72688l0,471.0509l343.13708,0l0,-471.0509l-343.13708,0zm113.0442,80.1729c21.74731,0 38.88972,7.91211 49.8421,22.15156l-23.65085,21.04351c-6.50845,-8.22836 -14.28475,-12.97562 -24.28536,-12.97562c-15.55612,0 -26.03145,10.75953 -26.03145,27.68945c0,16.92992 10.4765,27.68945 26.03145,27.68945c10.00062,0 17.77809,-4.74726 24.28536,-12.97562l23.65085,21.04351c-10.95238,14.23945 -28.09596,22.15156 -49.8421,22.15156c-35.71481,0 -61.90488,-23.8921 -61.90488,-57.91124c0,-34.01445 26.19125,-57.90655 61.90488,-57.90655zm173.55668,316.58385l-230.06586,0l0,-35.16349l230.06586,0l0,35.16349zm0,-62.54606l-230.06586,0l0,-35.16349l230.06586,0l0,35.16349zm0,-62.54606l-230.06586,0l0,-35.16349l230.06586,0l0,35.16349zm-41.17161,-78.20043l-36.82638,0l-46.98444,-110.76013l40.31854,0l26.5085,64.7153l27.14419,-64.7153l36.82403,0l-46.98444,110.76013z"/>
   </g>
  </g>
  <g id="svg_7"/>
  <g id="svg_8"/>
  <g id="svg_9"/>
  <g id="svg_10"/>
  <g id="svg_11"/>
  <g id="svg_12"/>
  <g id="svg_13"/>
  <g id="svg_14"/>
  <g id="svg_15"/>
  <g id="svg_16"/>
  <g id="svg_17"/>
  <g id="svg_18"/>
  <g id="svg_19"/>
  <g id="svg_20"/>
  <g id="svg_21"/>
 </g>
</svg>